# xmcd
#
# Track frame offsets:
#	182
#	9480
#	19265
#	28645
#	39387
#	52010
#	62282
#	76395
#	87325
#	99655
#	114032
#	126397
#	137795
#	147535
#	158515
#	168372
#	176260
#	186207
#	199037
#	210305
#	219742
#	232480
#
# Disc length: 3259 seconds
#
# Revision: 0
# Processed by: cddbd v1.5.2PL0 Copyright (c) Steve Scherf et al.
# Submitted via: audiograbber 1.83.01
#
DISCID=2e0cb916
DTITLE=Jim Reeves - Country Classics - Jim Reeves [Disc 3]
DYEAR=1994
DGENRE=Country
TTITLE0=I Won't Forget You
TTITLE1=When Two Worlds Collide
TTITLE2=There's A Heartache Following Me
TTITLE3=You're The Only Good Thing (That's Happened To Me)
TTITLE4=Not Until The Next Time
TTITLE5=Is It Really Over
TTITLE6=This Is It
TTITLE7=Angels Don't Lie
TTITLE8=Nobody's Fool
TTITLE9=Guilty
TTITLE10=A Letter To My Heart
TTITLE11=Adios Amigo
TTITLE12=I Won't Come In While He's There
TTITLE13=That's When I See The Blues (In Your Pretty Brown Eyes)
TTITLE14=It Hurts So Much To See You Go
TTITLE15=Trying To Forget
TTITLE16=But You Love Me, Daddy (with Steve Moore)
TTITLE17=Four Walls
TTITLE18=According To My Heart
TTITLE19=Billy Bayou
TTITLE20=Bimbo
TTITLE21=Mexican Joe
EXTD=
EXTT0=
EXTT1=
EXTT2=
EXTT3=
EXTT4=
EXTT5=
EXTT6=
EXTT7=
EXTT8=
EXTT9=
EXTT10=
EXTT11=
EXTT12=
EXTT13=
EXTT14=
EXTT15=
EXTT16=
EXTT17=
EXTT18=
EXTT19=
EXTT20=
EXTT21=
PLAYORDER=
